<svg width="36" height="37" viewBox="0 0 36 37" fill="none" xmlns="http://www.w3.org/2000/svg">
<path d="M24.0974 13.5328C24.5367 13.0935 24.5367 12.3811 24.0974 11.9418C23.6581 11.5025 22.9458 11.5025 22.5064 11.9418L17.9986 16.4496L13.4908 11.9418C13.0515 11.5025 12.3392 11.5025 11.8998 11.9418C11.4605 12.3811 11.4605 13.0935 11.8998 13.5328L16.4076 18.0406L11.8998 22.5484C11.4605 22.9878 11.4605 23.7001 11.8998 24.1394C12.3392 24.5787 13.0515 24.5787 13.4908 24.1394L17.9986 19.6316L22.5064 24.1394C22.9458 24.5787 23.6581 24.5787 24.0974 24.1394C24.5368 23.7001 24.5368 22.9878 24.0974 22.5484L19.5896 18.0406L24.0974 13.5328Z" fill="black"/>
</svg>
